<svg width="94" height="13" viewBox="0 0 94 13" fill="none" xmlns="http://www.w3.org/2000/svg">
<path d="M4.46856 12V2.056H0.636563V0.48H9.97256V2.056H6.14056V12H4.46856ZM14.9839 1.912V0.311999H16.5839V1.912H14.9839ZM11.7599 1.912V0.311999H13.3599V1.912H11.7599ZM13.7119 12.232C13.1146 12.232 12.6133 12.136 12.2079 11.944C11.8026 11.752 11.4719 11.5013 11.2159 11.192C10.9653 10.8773 10.7733 10.536 10.6399 10.168C10.5066 9.8 10.4159 9.44 10.3679 9.088C10.3199 8.736 10.2959 8.42667 10.2959 8.16V3.36H11.9919V7.608C11.9919 7.944 12.0186 8.29067 12.0719 8.648C12.1306 9 12.2373 9.328 12.3919 9.632C12.5519 9.936 12.7733 10.1813 13.0559 10.368C13.3439 10.5547 13.7173 10.648 14.1759 10.648C14.4746 10.648 14.7573 10.6 15.0239 10.504C15.2906 10.4027 15.5226 10.2427 15.7199 10.024C15.9226 9.80533 16.0799 9.51733 16.1919 9.16C16.3093 8.80267 16.3679 8.368 16.3679 7.856L17.4079 8.248C17.4079 9.032 17.2613 9.72533 16.9679 10.328C16.6746 10.9253 16.2533 11.392 15.7039 11.728C15.1546 12.064 14.4906 12.232 13.7119 12.232ZM16.5679 12V9.504H16.3679V3.36H18.0559V12H16.5679ZM30.6517 12L30.6597 6.616C30.6597 5.992 30.4997 5.50667 30.1797 5.16C29.8597 4.808 29.4384 4.632 28.9157 4.632C28.5957 4.632 28.3024 4.70667 28.0357 4.856C27.7744 5 27.561 5.21867 27.3957 5.512C27.2357 5.8 27.1557 6.16267 27.1557 6.6L26.3477 6.192C26.337 5.584 26.465 5.05067 26.7317 4.592C27.0037 4.13333 27.3717 3.77867 27.8357 3.528C28.2997 3.272 28.8197 3.144 29.3957 3.144C30.329 3.144 31.0517 3.424 31.5637 3.984C32.0757 4.544 32.3317 5.288 32.3317 6.216L32.3237 12H30.6517ZM20.2917 12V3.36H21.7797V5.856H21.9717V12H20.2917ZM25.4757 12L25.4837 6.648C25.4837 6.01867 25.3237 5.52533 25.0037 5.168C24.689 4.81067 24.265 4.632 23.7317 4.632C23.2037 4.632 22.777 4.81333 22.4517 5.176C22.1317 5.53867 21.9717 6.01333 21.9717 6.6L21.1717 6.088C21.1717 5.52267 21.3077 5.01867 21.5797 4.576C21.8517 4.13333 22.2197 3.784 22.6837 3.528C23.1477 3.272 23.673 3.144 24.2597 3.144C24.873 3.144 25.3957 3.27467 25.8277 3.536C26.2597 3.792 26.5877 4.152 26.8117 4.616C27.041 5.08 27.1557 5.61867 27.1557 6.232L27.1477 12H25.4757ZM38.9371 1.912V0.311999H40.5371V1.912H38.9371ZM35.7131 1.912V0.311999H37.3131V1.912H35.7131ZM37.6651 12.232C37.0677 12.232 36.5664 12.136 36.1611 11.944C35.7557 11.752 35.4251 11.5013 35.1691 11.192C34.9184 10.8773 34.7264 10.536 34.5931 10.168C34.4597 9.8 34.3691 9.44 34.3211 9.088C34.2731 8.736 34.2491 8.42667 34.2491 8.16V3.36H35.9451V7.608C35.9451 7.944 35.9717 8.29067 36.0251 8.648C36.0837 9 36.1904 9.328 36.3451 9.632C36.5051 9.936 36.7264 10.1813 37.0091 10.368C37.2971 10.5547 37.6704 10.648 38.1291 10.648C38.4277 10.648 38.7104 10.6 38.9771 10.504C39.2437 10.4027 39.4757 10.2427 39.6731 10.024C39.8757 9.80533 40.0331 9.51733 40.1451 9.16C40.2624 8.80267 40.3211 8.368 40.3211 7.856L41.3611 8.248C41.3611 9.032 41.2144 9.72533 40.9211 10.328C40.6277 10.9253 40.2064 11.392 39.6571 11.728C39.1077 12.064 38.4437 12.232 37.6651 12.232ZM40.5211 12V9.504H40.3211V3.36H42.0091V12H40.5211ZM50.3168 12V7.752C50.3168 7.416 50.2875 7.072 50.2288 6.72C50.1755 6.36267 50.0688 6.032 49.9088 5.728C49.7541 5.424 49.5328 5.17867 49.2448 4.992C48.9621 4.80533 48.5915 4.712 48.1328 4.712C47.8341 4.712 47.5515 4.76267 47.2848 4.864C47.0181 4.96 46.7835 5.11733 46.5808 5.336C46.3835 5.55467 46.2261 5.84267 46.1088 6.2C45.9968 6.55733 45.9408 6.992 45.9408 7.504L44.9008 7.112C44.9008 6.328 45.0475 5.63733 45.3408 5.04C45.6341 4.43733 46.0555 3.968 46.6048 3.632C47.1541 3.296 47.8181 3.128 48.5968 3.128C49.1941 3.128 49.6955 3.224 50.1008 3.416C50.5061 3.608 50.8341 3.86133 51.0848 4.176C51.3408 4.48533 51.5355 4.824 51.6688 5.192C51.8021 5.56 51.8928 5.92 51.9408 6.272C51.9888 6.624 52.0128 6.93333 52.0128 7.2V12H50.3168ZM44.2448 12V3.36H45.7408V5.856H45.9408V12H44.2448ZM58.6246 1.912V0.311999H60.2246V1.912H58.6246ZM55.4006 1.912V0.311999H57.0006V1.912H55.4006ZM57.3526 12.232C56.7552 12.232 56.2539 12.136 55.8486 11.944C55.4432 11.752 55.1126 11.5013 54.8566 11.192C54.6059 10.8773 54.4139 10.536 54.2806 10.168C54.1472 9.8 54.0566 9.44 54.0086 9.088C53.9606 8.736 53.9366 8.42667 53.9366 8.16V3.36H55.6326V7.608C55.6326 7.944 55.6592 8.29067 55.7126 8.648C55.7712 9 55.8779 9.328 56.0326 9.632C56.1926 9.936 56.4139 10.1813 56.6966 10.368C56.9846 10.5547 57.3579 10.648 57.8166 10.648C58.1152 10.648 58.3979 10.6 58.6646 10.504C58.9312 10.4027 59.1632 10.2427 59.3606 10.024C59.5632 9.80533 59.7206 9.51733 59.8326 9.16C59.9499 8.80267 60.0086 8.368 60.0086 7.856L61.0486 8.248C61.0486 9.032 60.9019 9.72533 60.6086 10.328C60.3152 10.9253 59.8939 11.392 59.3446 11.728C58.7952 12.064 58.1312 12.232 57.3526 12.232ZM60.2086 12V9.504H60.0086V3.36H61.6966V12H60.2086ZM71.8554 12.24C71.0821 12.24 70.3701 12.1067 69.7194 11.84C69.0688 11.568 68.5034 11.1733 68.0234 10.656C67.5434 10.1387 67.1701 9.50933 66.9034 8.768C66.6368 8.02667 66.5034 7.184 66.5034 6.24C66.5034 4.99733 66.7301 3.93067 67.1834 3.04C67.6368 2.144 68.2661 1.456 69.0714 0.976C69.8768 0.490666 70.8048 0.247999 71.8554 0.247999C73.2101 0.247999 74.2901 0.562666 75.0954 1.192C75.9061 1.82133 76.4581 2.69067 76.7514 3.8L75.0554 4.104C74.8208 3.416 74.4421 2.86667 73.9194 2.456C73.3968 2.04533 72.7408 1.83733 71.9514 1.832C71.1354 1.82667 70.4554 2.008 69.9114 2.376C69.3728 2.744 68.9674 3.26133 68.6954 3.928C68.4234 4.58933 68.2848 5.36 68.2794 6.24C68.2741 7.12 68.4074 7.89067 68.6794 8.552C68.9514 9.208 69.3594 9.72 69.9034 10.088C70.4528 10.456 71.1354 10.6427 71.9514 10.648C72.6074 10.6587 73.1701 10.5387 73.6394 10.288C74.1141 10.032 74.4901 9.65867 74.7674 9.168C75.0448 8.67733 75.2234 8.07467 75.3034 7.36H73.0634V6.016H77.0794C77.0901 6.112 77.0981 6.24 77.1034 6.4C77.1088 6.55467 77.1114 6.65333 77.1114 6.696C77.1114 7.76267 76.9061 8.71467 76.4954 9.552C76.0848 10.3893 75.4874 11.048 74.7034 11.528C73.9194 12.0027 72.9701 12.24 71.8554 12.24ZM83.2739 1.912V0.311999H84.8739V1.912H83.2739ZM80.0579 1.912V0.311999H81.6579V1.912H80.0579ZM82.4579 12.24C81.5939 12.24 80.8446 12.0453 80.2099 11.656C79.5753 11.2667 79.0846 10.7307 78.7379 10.048C78.3966 9.36 78.2259 8.568 78.2259 7.672C78.2259 6.77067 78.4019 5.97867 78.7539 5.296C79.1059 4.608 79.5993 4.07467 80.2339 3.696C80.8686 3.312 81.6099 3.12 82.4579 3.12C83.3219 3.12 84.0713 3.31467 84.7059 3.704C85.3406 4.09333 85.8313 4.62933 86.1779 5.312C86.5246 5.99467 86.6979 6.78133 86.6979 7.672C86.6979 8.57333 86.5219 9.368 86.1699 10.056C85.8233 10.7387 85.3326 11.2747 84.6979 11.664C84.0633 12.048 83.3166 12.24 82.4579 12.24ZM82.4579 10.664C83.2846 10.664 83.9006 10.3867 84.3059 9.832C84.7166 9.272 84.9219 8.552 84.9219 7.672C84.9219 6.76533 84.7139 6.04267 84.2979 5.504C83.8873 4.96533 83.2739 4.696 82.4579 4.696C81.8979 4.696 81.4366 4.824 81.0739 5.08C80.7113 5.33067 80.4419 5.68 80.2659 6.128C80.0899 6.57067 80.0019 7.08533 80.0019 7.672C80.0019 8.57867 80.2099 9.304 80.6259 9.848C81.0419 10.392 81.6526 10.664 82.4579 10.664ZM88.4559 12V3.36H89.9439V5.456L89.7359 5.184C89.8426 4.90667 89.9813 4.65333 90.1519 4.424C90.3226 4.18933 90.5199 3.99733 90.7439 3.848C90.9626 3.688 91.2053 3.56533 91.4719 3.48C91.7439 3.38933 92.0213 3.336 92.3039 3.32C92.5866 3.29867 92.8586 3.312 93.1199 3.36V4.928C92.8373 4.85333 92.5226 4.832 92.1759 4.864C91.8346 4.896 91.5199 5.00533 91.2319 5.192C90.9599 5.368 90.7439 5.58133 90.5839 5.832C90.4293 6.08267 90.3173 6.36267 90.2479 6.672C90.1786 6.976 90.1439 7.29867 90.1439 7.64V12H88.4559Z" fill="#F84646"/>
</svg>
